<mxfile host="app.diagrams.net" modified="2021-10-24T21:48:36.913Z" agent="5.0 (Macintosh; Intel Mac OS X 10_15_7) AppleWebKit/537.36 (KHTML, like Gecko) Chrome/93.0.4577.82 Safari/537.36 Edg/93.0.961.52" etag="ALoMa4fYykl7HqSE0MNQ" version="15.3.8" type="github">
  <diagram id="ZEOOtgSiwhDXwcd7VbD-" name="Page-1">
    <mxGraphModel dx="5290" dy="2609" grid="1" gridSize="10" guides="1" tooltips="1" connect="1" arrows="1" fold="1" page="1" pageScale="1" pageWidth="850" pageHeight="1100" math="0" shadow="0">
      <root>
        <mxCell id="0" />
        <mxCell id="1" parent="0" />
        <mxCell id="VVwiRAqZByVtcaLR8sdH-13" value="" style="rounded=0;whiteSpace=wrap;html=1;fillColor=#FFCCCC;" vertex="1" parent="1">
          <mxGeometry x="-140" y="23" width="140" height="940" as="geometry" />
        </mxCell>
        <mxCell id="VVwiRAqZByVtcaLR8sdH-1" value="" style="endArrow=none;html=1;" edge="1" parent="1">
          <mxGeometry width="50" height="50" relative="1" as="geometry">
            <mxPoint as="sourcePoint" />
            <mxPoint y="1096" as="targetPoint" />
          </mxGeometry>
        </mxCell>
        <mxCell id="VVwiRAqZByVtcaLR8sdH-2" value="" style="endArrow=none;html=1;" edge="1" parent="1">
          <mxGeometry width="50" height="50" relative="1" as="geometry">
            <mxPoint as="sourcePoint" />
            <mxPoint x="1516" as="targetPoint" />
          </mxGeometry>
        </mxCell>
        <mxCell id="VVwiRAqZByVtcaLR8sdH-3" value="" style="endArrow=none;html=1;" edge="1" parent="1">
          <mxGeometry width="50" height="50" relative="1" as="geometry">
            <mxPoint x="1516" as="sourcePoint" />
            <mxPoint x="1516" y="1492" as="targetPoint" />
          </mxGeometry>
        </mxCell>
        <mxCell id="VVwiRAqZByVtcaLR8sdH-4" value="" style="endArrow=none;html=1;" edge="1" parent="1">
          <mxGeometry width="50" height="50" relative="1" as="geometry">
            <mxPoint x="1516" y="1492" as="sourcePoint" />
            <mxPoint x="948" y="1492" as="targetPoint" />
          </mxGeometry>
        </mxCell>
        <mxCell id="VVwiRAqZByVtcaLR8sdH-5" value="" style="endArrow=none;html=1;" edge="1" parent="1">
          <mxGeometry width="50" height="50" relative="1" as="geometry">
            <mxPoint x="948" y="1492" as="sourcePoint" />
            <mxPoint x="948" y="1096" as="targetPoint" />
          </mxGeometry>
        </mxCell>
        <mxCell id="VVwiRAqZByVtcaLR8sdH-6" value="" style="endArrow=none;html=1;" edge="1" parent="1">
          <mxGeometry width="50" height="50" relative="1" as="geometry">
            <mxPoint y="1096" as="sourcePoint" />
            <mxPoint x="948" y="1096" as="targetPoint" />
          </mxGeometry>
        </mxCell>
        <mxCell id="VVwiRAqZByVtcaLR8sdH-10" value="" style="verticalLabelPosition=bottom;html=1;verticalAlign=top;align=center;shape=mxgraph.floorplan.doorDouble;aspect=fixed;fillColor=default;rotation=90;" vertex="1" parent="1">
          <mxGeometry x="-125" y="310" width="160" height="85" as="geometry" />
        </mxCell>
        <mxCell id="VVwiRAqZByVtcaLR8sdH-11" value="" style="endArrow=none;html=1;" edge="1" parent="1">
          <mxGeometry width="50" height="50" relative="1" as="geometry">
            <mxPoint y="450" as="sourcePoint" />
            <mxPoint x="-100" y="450" as="targetPoint" />
          </mxGeometry>
        </mxCell>
        <mxCell id="VVwiRAqZByVtcaLR8sdH-12" value="" style="endArrow=none;html=1;" edge="1" parent="1">
          <mxGeometry width="50" height="50" relative="1" as="geometry">
            <mxPoint y="250" as="sourcePoint" />
            <mxPoint x="-100" y="250" as="targetPoint" />
          </mxGeometry>
        </mxCell>
        <mxCell id="VVwiRAqZByVtcaLR8sdH-14" value="" style="rounded=0;whiteSpace=wrap;html=1;fillColor=#004C99;" vertex="1" parent="1">
          <mxGeometry x="-460" y="23" width="320" height="1320" as="geometry" />
        </mxCell>
        <mxCell id="VVwiRAqZByVtcaLR8sdH-15" value="" style="rounded=0;whiteSpace=wrap;html=1;fillColor=#FFCCCC;" vertex="1" parent="1">
          <mxGeometry x="-140" y="963" width="140" height="40" as="geometry" />
        </mxCell>
        <mxCell id="VVwiRAqZByVtcaLR8sdH-16" value="" style="rounded=0;whiteSpace=wrap;html=1;fillColor=#66B2FF;" vertex="1" parent="1">
          <mxGeometry x="-460" y="23" width="320" height="220" as="geometry" />
        </mxCell>
        <mxCell id="VVwiRAqZByVtcaLR8sdH-17" value="" style="rounded=0;whiteSpace=wrap;html=1;fillColor=#3399FF;" vertex="1" parent="1">
          <mxGeometry x="-460" y="63" width="120" height="60" as="geometry" />
        </mxCell>
        <mxCell id="VVwiRAqZByVtcaLR8sdH-18" value="" style="rounded=0;whiteSpace=wrap;html=1;fillColor=#007FFF;" vertex="1" parent="1">
          <mxGeometry x="-460" y="123" width="120" height="60" as="geometry" />
        </mxCell>
        <mxCell id="VVwiRAqZByVtcaLR8sdH-19" value="" style="rounded=0;whiteSpace=wrap;html=1;fillColor=#0066CC;" vertex="1" parent="1">
          <mxGeometry x="-460" y="183" width="120" height="60" as="geometry" />
        </mxCell>
        <mxCell id="VVwiRAqZByVtcaLR8sdH-21" value="" style="rounded=0;whiteSpace=wrap;html=1;fillColor=#66B2FF;" vertex="1" parent="1">
          <mxGeometry x="-460" y="1297" width="320" height="60" as="geometry" />
        </mxCell>
      </root>
    </mxGraphModel>
  </diagram>
</mxfile>
